<svg width="64" height="64" viewBox="0 0 64 64" fill="none" xmlns="http://www.w3.org/2000/svg">
  <rect width="64" height="64" rx="12" fill="#FC6D26"/>
  <path d="M32 12L38 28H26L32 12Z" fill="white"/>
  <path d="M32 12L26 28H14L32 12Z" fill="#E24329"/>
  <path d="M14 28L8 44L26 28H14Z" fill="#FC6D26"/>
  <path d="M14 28L26 28L20 44L14 28Z" fill="#FCA326"/>
  <path d="M32 12L38 28H50L32 12Z" fill="#E24329"/>
  <path d="M50 28L56 44L38 28H50Z" fill="#FC6D26"/>
  <path d="M50 28L38 28L44 44L50 28Z" fill="#FCA326"/>
  <path d="M26 28L38 28L32 44L26 28Z" fill="#E24329"/>
  <circle cx="32" cy="48" r="4" fill="white"/>
</svg>